<?xml version="1.0" encoding="UTF-8" standalone="no"?>
<!-- Created with Inkscape (http://www.inkscape.org/) -->

<svg
   width="180mm"
   height="180mm"
   viewBox="0 0 180 180"
   version="1.1"
   id="svg5"
   xml:space="preserve"
   xmlns="http://www.w3.org/2000/svg"
   xmlns:svg="http://www.w3.org/2000/svg"><defs
     id="defs2" /><g
     id="layer1"><path
       style="fill:none;fill-opacity:1;stroke:none;stroke-width:3.96875;stroke-linecap:round;stroke-linejoin:round"
       d="m -195.13021,195.54362 90.53711,-93.43099 88.470053,93.43099 0.413412,86.8164 -179.007155,-0.41341 z"
       id="path15661" /><path
       style="fill:#fb303b;fill-opacity:1;stroke:none;stroke-width:2.78493;stroke-linecap:round;stroke-linejoin:round"
       d="m 156.80136,77.42895 12.74424,12.744235 -12.7439,12.743895 5.6653,5.66531 18.4092,-18.409205 -18.40954,-18.409541 z"
       id="path25875" /><path
       style="fill:#fb303b;fill-opacity:1;stroke:none;stroke-width:2.78493;stroke-linecap:round;stroke-linejoin:round"
       d="m 73.44047,160.78984 18.409534,18.40954 18.409206,-18.40921 -5.6653,-5.6653 -12.743899,12.7439 -12.744235,-12.74424 z"
       id="path25873" /><path
       style="fill:#fb303b;fill-opacity:1;stroke:none;stroke-width:2.78493;stroke-linecap:round;stroke-linejoin:round"
       d="M 73.44081,19.556196 79.106109,25.221495 91.850011,12.4776 104.59391,25.221495 110.25921,19.556196 91.850011,1.1469946 Z"
       id="path25871" /><path
       style="fill:#fb303b;fill-opacity:1;stroke:none;stroke-width:2.78493;stroke-linecap:round;stroke-linejoin:round"
       d="m 2.8238182,90.173185 18.4091948,18.409205 5.665313,-5.66531 -12.743902,-12.743901 12.743895,-12.743895 -5.6653,-5.6653 z"
       id="rect17173" /><path
       style="fill:#008000;fill-opacity:1;stroke:none;stroke-width:2.595;stroke-linecap:round;stroke-linejoin:round;stroke-opacity:1"
       d="M 94.257276,92.979109 V 149.33829 H 150.61645 V 92.979109 Z"
       id="path18587" /><path
       style="fill:#0000ff;fill-opacity:1;stroke:none;stroke-width:2.595;stroke-linecap:round;stroke-linejoin:round;stroke-opacity:1"
       d="M 32.492185,92.979109 V 149.33829 H 88.851023 V 92.979109 Z"
       id="path18585" /><path
       style="fill:#800080;fill-opacity:1;stroke:none;stroke-width:2.595;stroke-linecap:round;stroke-linejoin:round;stroke-opacity:1"
       d="M 94.257276,31.213679 V 87.572855 H 150.61645 V 31.213679 Z"
       id="path18583" /><path
       style="fill:#ff0000;fill-opacity:1;stroke:none;stroke-width:2.595;stroke-linecap:round;stroke-linejoin:round;stroke-opacity:1"
       d="M 32.492185,31.213679 V 87.572855 H 88.851023 V 31.213679 Z"
       id="rect17837" /><path
       d="M 71.993644,40.831874 H 50.226519 c -2.99298,0 -5.441778,2.448812 -5.441778,5.441798 v 24.487999 c 0,1.496493 1.224396,2.720889 2.720882,2.720889 v 0 4.08134 c 0,0.680222 0.544187,1.360445 1.360451,1.360445 h 2.720889 c 0.816264,0 1.360445,-0.680223 1.360445,-1.360445 v -4.08134 h 16.325347 v 4.08134 c 0,0.680222 0.680222,1.360445 1.360444,1.360445 h 2.720889 c 0.680223,0 1.360445,-0.680223 1.360445,-1.360445 v -4.08134 0 c 1.496493,0 2.720895,-1.224396 2.720895,-2.720889 V 46.273672 c 0,-2.992986 -2.448805,-5.441798 -5.441784,-5.441798 z M 50.226519,46.273672 H 71.993644 V 57.157219 H 50.226519 Z m 2.720889,21.76711 c -1.496493,0 -2.720889,-1.224403 -2.720889,-2.720889 0,-1.496493 1.224396,-2.720889 2.720889,-2.720889 1.496486,0 2.720889,1.224396 2.720889,2.720889 0,1.496486 -1.224403,2.720889 -2.720889,2.720889 z m 13.604458,-2.720889 c 0,-1.496493 1.224396,-2.720889 2.720889,-2.720889 1.496486,0 2.720889,1.224396 2.720889,2.720889 0,1.496486 -1.224403,2.720889 -2.720889,2.720889 -1.496493,0 -2.720889,-1.224403 -2.720889,-2.720889 z"
       fill="#1177d7"
       class="Blue"
       id="path14745"
       style="fill:#ffffff;fill-opacity:1;stroke-width:1.36044" /><path
       d="m 133.50811,41.866815 h -22.49159 l -5.62289,14.057233 v 12.651518 1.405718 4.217166 c 0,0.702866 0.5623,1.405724 1.40573,1.405724 h 2.81145 c 0.84343,0 1.40571,-0.702858 1.40571,-1.405724 v -4.217166 h 22.49159 v 4.217166 c 0,0.702866 0.56228,1.405724 1.40571,1.405724 h 2.81145 c 0.84343,0 1.40573,-0.702858 1.40573,-1.405724 V 69.981284 68.575566 55.924048 Z m -20.52358,2.811442 h 18.69613 l 4.49831,11.245791 h -27.69274 z m 0.84344,19.68013 c -1.54629,0 -2.81145,-1.265151 -2.81145,-2.811448 0,-1.546291 1.26516,-2.811442 2.81145,-2.811442 1.54629,0 2.81145,1.265151 2.81145,2.811442 0,1.546297 -1.26516,2.811448 -2.81145,2.811448 z m 16.86869,0 c -1.54629,0 -2.81145,-1.265151 -2.81145,-2.811448 0,-1.546291 1.26516,-2.811442 2.81145,-2.811442 1.54629,0 2.81145,1.265151 2.81145,2.811442 0,1.546297 -1.26516,2.811448 -2.81145,2.811448 z"
       fill="#1177d7"
       class="Blue"
       id="path14721"
       style="fill:#ffffff;fill-opacity:1;stroke-width:1.40572" /><path
       d="M 71.258099,103.63731 H 50.529131 c -2.850229,0 -5.182242,2.33202 -5.182242,5.18224 v 23.32009 c 0,1.42512 1.166,2.59112 2.591124,2.59112 h 5.182242 l -5.182242,5.18224 h 2.591118 2.591124 l 5.182242,-5.18224 h 5.182242 l 5.182235,5.18224 h 2.591125 2.59113 l -5.182255,-5.18224 h 5.182255 c 1.425105,0 2.591118,-1.166 2.591118,-2.59112 v -23.32009 c 0,-2.85022 -2.332013,-5.18224 -5.182248,-5.18224 z m -18.137844,25.91121 c -1.425117,0 -2.591124,-1.166 -2.591124,-2.59112 0,-1.42512 1.166007,-2.59112 2.591124,-2.59112 1.425118,0 2.591118,1.166 2.591118,2.59112 0,1.42512 -1.166,2.59112 -2.591118,2.59112 z M 71.258099,119.18403 H 50.529131 v -10.36448 h 20.728968 z m -2.591125,10.36449 c -1.425104,0 -2.591111,-1.166 -2.591111,-2.59112 0,-1.42512 1.166007,-2.59112 2.591111,-2.59112 1.425125,0 2.591125,1.166 2.591125,2.59112 0,1.42512 -1.166,2.59112 -2.591125,2.59112 z"
       fill="#1177d7"
       class="Blue"
       id="path14769"
       style="fill:#ffffff;fill-opacity:1;stroke-width:1.29556" /><path
       d="m 12,22 c 2.1,0 3.4,1.1 4,1.8 0.6,-0.6 1.9,-1.8 4,-1.8 2.1,0 3.4,1.1 4,1.8 0,0 4,-9.8 4,-9.8 L 24,12.7 V 7 C 24,6.5 23.6,6 23,6 H 20 V 5 C 20,4.5 19.6,4 19,4 H 13 C 12.4,4 12,4.5 12,5 V 6 H 9 C 8.4,6 8,6.5 8,7 v 5.7 L 4,14 c 0,0 4,9.7 4,9.8 C 8.6,23.1 9.9,22 12,22 Z M 10,8 h 3 6 3 v 4 l -6,-2 -6,2 z"
       fill="#1177d7"
       class="Blue"
       id="path14687"
       style="fill:#ffffff;fill-opacity:1"
       transform="matrix(1.5202867,0,0,1.5202867,97.231562,98.619622)" /><path
       d="M 24,26 C 23.4,26 23.2,25.8 22.7,25.3 22.2,24.7 21.4,24 20,24 18.6,24 17.8,24.7 17.3,25.3 16.8,25.8 16.6,26 16,26 15.4,26 15.2,25.8 14.7,25.3 14.2,24.7 13.4,24 12,24 10.6,24 9.8,24.7 9.3,25.3 8.8,25.8 8.6,26 8,26 7.4,26 7.2,25.8 6.7,25.3 6.2,24.7 5.4,24 4,24 v 2 c 0.6,0 0.8,0.2 1.3,0.7 0.5,0.6 1.3,1.3 2.7,1.3 1.4,0 2.2,-0.7 2.7,-1.3 0.5,-0.5 0.7,-0.7 1.3,-0.7 0.6,0 0.8,0.2 1.3,0.7 0.5,0.5 1.3,1.3 2.7,1.3 1.4,0 2.2,-0.7 2.7,-1.3 0.5,-0.5 0.7,-0.7 1.3,-0.7 0.6,0 0.8,0.2 1.3,0.7 0.5,0.5 1.3,1.3 2.7,1.3 1.4,0 2.2,-0.7 2.7,-1.3 C 27.2,26.2 27.4,26 28,26 v -2 c -1.4,0 -2.2,0.7 -2.7,1.3 C 24.8,25.8 24.6,26 24,26 Z"
       fill="#1177d7"
       class="Blue"
       id="path14691"
       style="fill:#ffffff;fill-opacity:1"
       transform="matrix(1.5202867,0,0,1.5202867,97.231562,98.61962)" /></g></svg>
