<?xml version='1.0' encoding='UTF-8'?>
<svg viewBox="-2 -3.7725 32 32" xmlns="http://www.w3.org/2000/svg" xmlns:xlink="http://www.w3.org/1999/xlink">
  <g id="Layer_1" transform="translate(-9.5367431640625E-07, -0.0389)" style="enable-background:new 0 0 32 32">
    <g transform="matrix(0.875000715255737, 0, 0, 0.875000715255737, 0, 0)">
      <g id="Layer_2">
        <path d="M26, 16C31, 17.2 32, 18.7 32, 24L24.5, 24L8, 24C8, 18.7 9, 17.2 14, 16C16.6, 15.4 17, 13.7 17, 13.1C17, 13.1 17, 13.1 17, 13.1C12.9, 13.1 12, 12.1 12, 12.1C16.4, 9.1 12.4, 5.6 16, 1.2C17.1, -0.1 18.5, -0.1 20, 0.2C21.5, -0.1 22.9, -0.1 24, 1.2C27.6, 5.6 23.6, 9.1 28, 12.1C28, 12.1 27.1, 13.1 23, 13.1C23, 13.1 23, 13.4 23, 13.4C23, 13.9 23.4, 15.4 26, 16z" fill="#1177D7" style="fill:#DEDEDE" />
      </g>
    </g>
  </g>
  <g id="Layer_1" transform="translate(0, -0.0389001430511473)" style="enable-background:new 0 0 32 32">
    <g transform="matrix(0.875000715255737, 0, 0, 0.875000715255737, 0, 0)">
      <g id="Layer_2">
        <path d="M18, 21C15.4, 20.3 15, 18.7 15, 18C16.6, 16.4 18, 13.3 18, 10C18, 9.8 18, 9.5 18, 9C18, 6.5 15.2, 4 12.1, 4C12.1, 4 12, 4 12, 4C12, 4 11.9, 4 11.9, 4C8.8, 4 6, 6.5 6, 9C6, 9.5 6, 9.8 6, 10C6, 13.3 7.4, 16.4 9, 18C9, 18.7 8.6, 20.3 6, 21C1, 22.4 0, 22.1 0, 28L12, 28L24, 28C24, 22.1 23, 22.4 18, 21z" fill="#FFFFFF" class="White" />
      </g>
    </g>
  </g>
</svg>