<?xml version='1.0' encoding='UTF-8'?>
<svg viewBox="-3.05 -4 32 32" xmlns="http://www.w3.org/2000/svg" xmlns:xlink="http://www.w3.org/1999/xlink">
  <g id="Layer_1" transform="translate(-1.0500015258789, -4.00000014305115)" style="enable-background:new 0 0 32 32">
    <g id="Edit">
      <path d="M27.6, 8.2L23.8, 4.4C23.3, 3.9 22.4, 3.9 21.9, 4.4L19.4, 6.9L25.2, 12.7L27.7, 10.2C28.1, 9.6 28.1, 8.8 27.6, 8.2z" fill="#727272" class="Black" />
    </g>
  </g>
  <g id="Layer_1" transform="translate(-1.04999995231628, -3.99999923706055)" style="enable-background:new 0 0 32 32">
    <g id="Edit">
      <polygon points="4,28 9.8,28 4,22.2  " fill="#727272" class="Black" />
    </g>
  </g>
  <g id="Layer_1" transform="translate(-1.05000007629395, -3.99999994049072)" style="enable-background:new 0 0 32 32">
    <g id="Edit">
      <rect x="5.8" y="13.4" width="17.6" height="8.2" fill="#727272" class="Black" transform="matrix(0.707, -0.7072, 0.7072, 0.707, -8.0721, 15.4048)" />
    </g>
  </g>
  <g id="Text" transform="translate(-1.05, -4)" style="enable-background:new 0 0 32 32">
    <g transform="matrix(0.5, 0, 0, 0.5, 0, 0)">
      <path d="M16, 24L12.5, 24L11.5, 20.4L6.5, 20.4L5.5, 24L2.1, 24L7.2, 8L11, 8L16, 24zM10.8, 17.7L9.3, 12.3C9.2, 11.9 9.1, 11.4 9.1, 10.9L9, 10.9C9, 11.4 8.9, 11.8 8.8, 12.3L7.3, 17.7L10.8, 17.7zM18, 24L18, 8L23.8, 8C25.6, 8 27, 8.3 27.9, 9C28.8, 9.7 29.3, 10.6 29.3, 11.8C29.3, 12.7 29, 13.4 28.4, 14.1C27.8, 14.7 27.1, 15.2 26.2, 15.5L26.2, 15.5C27.3, 15.6 28.2, 16.1 28.9, 16.8C29.6, 17.5 29.9, 18.4 29.9, 19.4C29.9, 20.9 29.4, 22 28.3, 22.9C27.3, 23.8 25.8, 24.2 24, 24.2L18, 24.2zM21.6, 10.7L21.6, 14.5L23.2, 14.5C23.9, 14.5 24.5, 14.3 25, 14C25.4, 13.6 25.6, 13.1 25.6, 12.5C25.6, 11.3 24.7, 10.7 23, 10.7L21.6, 10.7zM21.6, 17.1L21.6, 21.3L23.5, 21.3C24.3, 21.3 25, 21.1 25.5, 20.7C26, 20.3 26.2, 19.8 26.2, 19.1C26.2, 18.5 26, 18 25.5, 17.6C25, 17.2 24.4, 17.1 23.6, 17.1L21.6, 17.1z" fill="#727272" class="Black" />
    </g>
  </g>
</svg>