<?xml version='1.0' encoding='UTF-8'?>
<svg viewBox="-6 -2 32 32" xmlns="http://www.w3.org/2000/svg" xmlns:xlink="http://www.w3.org/1999/xlink">
  <g id="Layer_1" transform="translate(-6, -2)" style="enable-background:new 0 0 32 32">
    <g id="Dollar_1_">
      <path d="M25.2, 17.5C24.6, 16.7 24, 16 23.2, 15.5C22.4, 15 21.6, 14.6 20.9, 14.4C20.1, 14.2 19.5, 14 19.1, 13.9C18.8, 13.8 18.4, 13.7 18.2, 13.7L18.2, 8.4C18.4, 8.5 18.5, 8.5 18.6, 8.6C19, 8.9 19.4, 9.2 19.6, 9.7C19.9, 10.1 20, 10.9 20, 12L25, 12C25, 10.1 24.7, 8.9 24.2, 8C23.7, 7.1 23, 6.3 22.1, 5.7C21.2, 5.1 20.2, 4.7 19.1, 4.4C18.7, 4.3 18.4, 4.3 18.1, 4.2L18.1, 2L14.1, 2L14.1, 4.1C13.7, 4.2 13.3, 4.3 12.8, 4.4C11.7, 4.7 10.8, 5.1 9.9, 5.7C9, 6.3 8.3, 7 7.8, 7.9C7.3, 8.7 7, 9.8 7, 10.9C7, 11.9 7.2, 12.8 7.6, 13.6C8, 14.4 8.6, 15 9.2, 15.5C9.9, 16 10.6, 16.4 11.5, 16.7C12.3, 17 13.2, 17.3 14, 17.5L14, 23.8C13.5, 23.6 13, 23.4 12.6, 23.2C12.1, 22.9 11.7, 22.4 11.5, 21.9C11.2, 21.4 11.1, 20.8 11.1, 20.1L6, 20.1C6, 21.5 6.3, 22.6 6.8, 23.6C7.4, 24.6 8.1, 25.5 9, 26.1C9.9, 26.8 11, 27.3 12.3, 27.6C12.9, 27.7 13.4, 27.8 14, 27.9L14, 30L18, 30L18, 27.9C18.9, 27.8 19.7, 27.7 20.4, 27.5C21.6, 27.1 22.7, 26.6 23.5, 26C24.3, 25.3 25, 24.6 25.4, 23.7C25.8, 22.8 26, 21.8 26, 20.8C26, 19.4 25.7, 18.3 25.2, 17.5zM13.4, 12.4C12.9, 12.2 12.5, 11.9 12.4, 11.6C12.2, 11.3 12.1, 11 12.1, 10.5C12.1, 10 12.2, 9.6 12.4, 9.3C12.6, 9 12.9, 8.7 13.2, 8.5C13.4, 8.4 13.7, 8.2 14, 8.2L14, 12.7C13.8, 12.5 13.6, 12.5 13.4, 12.4zM20.5, 22.7C20.2, 23.1 19.8, 23.4 19.3, 23.6C18.9, 23.8 18.4, 23.9 18, 24L18, 18.6C18.2, 18.7 18.5, 18.8 18.7, 18.8C19.4, 19.1 19.9, 19.4 20.3, 19.8C20.7, 20.2 20.9, 20.7 20.9, 21.3C20.9, 21.8 20.8, 22.3 20.5, 22.7z" fill="#727272" class="Black" />
    </g>
  </g>
</svg>