<?xml version='1.0' encoding='UTF-8'?>
<svg viewBox="-4 -2 32 32" xmlns="http://www.w3.org/2000/svg" xmlns:xlink="http://www.w3.org/1999/xlink">
  <g id="Layer_1" transform="translate(-4, -2)" style="enable-background:new 0 0 32 32">
    <g id="Lead_1_">
      <path d="M10.5, 9.6C9.4, 6 10, 2 14.8, 2C20, 2 20.3, 5 20.3, 5C20.3, 5 23.2, 4.8 21.4, 9.7C21.5, 9.6 21.8, 9.6 21.9, 10C22, 10.5 21.8, 10.9 21.6, 11.4C21.3, 11.9 21.7, 13.1 20.7, 13L20.7, 13.1C20.2, 15.4 18.7, 18 16, 18C13.3, 18 11.9, 15.4 11.3, 13.1C11.3, 13 11.3, 12.9 11.3, 12.9C10.3, 13 10.6, 11.8 10.4, 11.3C10.2, 10.8 9.9, 10.4 10, 9.9C10.1, 9.7 10.4, 9.6 10.5, 9.6zM20, 18L17.6, 25.9L17, 22L17.6, 20L14.4, 20L15, 22L14.4, 25.9L12, 18C9.7, 21.5 4, 19 4, 26.5L4, 30L14, 30L15, 30L17, 30L18, 30L28, 30L28, 26.5C28, 19.1 22.3, 21.4 20, 18z" fill="#727272" id="Lead" class="Black" />
    </g>
  </g>
</svg>