<?xml version='1.0' encoding='UTF-8'?>
<svg viewBox="-3.5 -3 32 32" xmlns="http://www.w3.org/2000/svg" xmlns:xlink="http://www.w3.org/1999/xlink">
  <g id="Layer_1" transform="translate(-1.50000228881836, -3.00000014305115)" style="enable-background:new 0 0 32 32">
    <g id="Edit">
      <path d="M27.6, 8.2L23.8, 4.4C23.3, 3.9 22.4, 3.9 21.9, 4.4L19.4, 6.9L25.2, 12.7L27.7, 10.2C28.1, 9.6 28.1, 8.8 27.6, 8.2z" fill="#727272" class="Black" />
    </g>
  </g>
  <g id="Layer_1" transform="translate(-1.5, -2.99999923706055)" style="enable-background:new 0 0 32 32">
    <g id="Edit">
      <polygon points="4,28 9.8,28 4,22.2  " fill="#727272" class="Black" />
    </g>
  </g>
  <g id="Layer_1" transform="translate(-1.49999988555908, -2.99999994049072)" style="enable-background:new 0 0 32 32">
    <g id="Edit">
      <rect x="5.8" y="13.4" width="17.6" height="8.2" fill="#727272" class="Black" transform="matrix(0.707, -0.7072, 0.7072, 0.707, -8.0721, 15.4048)" />
    </g>
  </g>
  <g id="Number_1_" transform="translate(-1.5, -3)" style="enable-background:new 0 0 32 32">
    <g transform="matrix(0.5, 0, 0, 0.5, 0, 0)">
      <path d="M7, 24L7, 12L3, 12L3, 10C3.6, 10 4.2, 10 4.7, 9.9C5.3, 9.8 5.7, 9.6 6.2, 9.3C6.6, 9 7, 8.6 7.3, 8.2C7.6, 7.7 7.8, 6.7 7.9, 6L11, 6L11, 24L7, 24zM15.7, 10.3C15.9, 9.4 16.3, 8.7 16.8, 8C17.3, 7.4 17.9, 6.8 18.7, 6.5C19.5, 6.2 20.3, 6 21.3, 6C22, 6 22.8, 6.1 23.4, 6.4C24.1, 6.7 24.7, 7 25.2, 7.5C25.7, 8 26.1, 8.6 26.4, 9.2C26.7, 9.9 26.9, 10.7 26.9, 11.5C26.9, 12.4 26.8, 13.2 26.5, 13.8C26.2, 14.4 25.9, 15 25.4, 15.5C25, 16 24.5, 16.5 24, 16.9C23.4, 17.3 22.9, 17.7 22.3, 18.1C21.7, 18.5 21.2, 18.9 20.7, 19.4C20.2, 19.9 19.7, 20.4 19.3, 21L27, 21L27, 24L15, 24C15, 23 15.1, 22.1 15.4, 21.3C15.7, 20.5 16, 19.9 16.5, 19.3C17, 18.7 17.5, 18.2 18.1, 17.6C18.7, 17.1 19.4, 16.6 20.1, 16.1C20.5, 15.8 20.8, 15.6 21.2, 15.3C21.6, 15 22, 14.7 22.3, 14.4C22.6, 14.1 22.9, 13.7 23.1, 13.3C23.3, 12.9 23.4, 12.4 23.4, 11.9C23.4, 11 23.2, 10.4 22.7, 9.9C22.2, 9.4 21.7, 9.2 20.9, 9.2C20.4, 9.2 20, 9.3 19.7, 9.6C19.4, 9.8 19.1, 10.2 18.9, 10.6C18.7, 11 18.6, 11.4 18.5, 11.9C18.4, 12.4 18.4, 12.9 18.4, 13.3L15.2, 13.3C15.3, 12.1 15.5, 11.2 15.7, 10.3z" fill="#727272" id="Number" class="Black" />
    </g>
  </g>
</svg>