<?xml version='1.0' encoding='UTF-8'?>
<svg viewBox="-3.2727 -1.9999 32 32" xmlns="http://www.w3.org/2000/svg" xmlns:xlink="http://www.w3.org/1999/xlink">
  <g id="Layer_1" transform="translate(-5.09090047683716, -1.2727251531601)">
    <g transform="matrix(1.27272510528564, 0, 0, 1.27272510528564, 0, 0)">
      <g>
        <g>
          <polygon points="18,14 18,21 6,21 6,5 18,5 18,8 20,6 20,3 15,3 15,1 9,1 9,3 4,3 4,23 18,23 20,23 20,12   " fill="#787878" />
        </g>
      </g>
    </g>
  </g>
  <g id="Layer_1" transform="translate(-5.09090047683716, -1.2727251531601)">
    <g transform="matrix(1.27272510528564, 0, 0, 1.27272510528564, 0, 0)">
      <g>
        <g>
          <polygon points="18,14 18,21 6,21 6,5 18,5 18,8 20,6 20,3 15,3 15,1 9,1 9,3 4,3 4,23 18,23 20,23 20,12   " fill="#787878" />
        </g>
      </g>
    </g>
  </g>
  <g id="Layer_1" transform="translate(-5.09090022277832, -1.27272580490112)">
    <g transform="matrix(1.27272510528564, 0, 0, 1.27272510528564, 0, 0)">
      <polygon points="22,5 13,14 11,12 9,14 13,18 24,7 " fill="#787878" />
    </g>
  </g>
</svg>