<?xml version="1.0" encoding="UTF-8" standalone="no"?>
<svg
   viewBox="-4 -4 32 32"
   version="1.1"
   id="svg26074"
   sodipodi:docname="searchclear.svg"
   inkscape:version="1.2 (dc2aedaf03, 2022-05-15)"
   xmlns:inkscape="http://www.inkscape.org/namespaces/inkscape"
   xmlns:sodipodi="http://sodipodi.sourceforge.net/DTD/sodipodi-0.dtd"
   xmlns="http://www.w3.org/2000/svg"
   xmlns:svg="http://www.w3.org/2000/svg">
  <defs
     id="defs26078" />
  <sodipodi:namedview
     id="namedview26076"
     pagecolor="#505050"
     bordercolor="#eeeeee"
     borderopacity="1"
     inkscape:showpageshadow="0"
     inkscape:pageopacity="0"
     inkscape:pagecheckerboard="0"
     inkscape:deskcolor="#505050"
     showgrid="false"
     inkscape:zoom="27.40625"
     inkscape:cx="12.570125"
     inkscape:cy="9.267959"
     inkscape:window-width="1920"
     inkscape:window-height="1009"
     inkscape:window-x="-8"
     inkscape:window-y="-8"
     inkscape:window-maximized="1"
     inkscape:current-layer="svg26074" />
  <g
     id="Layer_1"
     transform="translate(-4, -4)"
     style="enable-background:new 0 0 32 32">
    <g
       id="Zoom">
      <path
         d="M27.7, 25.3L20.5, 18C21.5, 16.6 22, 14.8 22, 13C22, 8 18, 4 13, 4C8, 4 4, 8 4, 13C4, 18 8, 22 13, 22C14.9, 22 16.6, 21.4 18, 20.5L25.3, 27.8C25.6, 28.1 26.2, 28.1 26.5, 27.8L27.7, 26.6C28.1, 26.2 28.1, 25.6 27.7, 25.3zM6, 13C6, 9.1 9.1, 6 13, 6C16.9, 6 20, 9.1 20, 13C20, 16.9 16.9, 20 13, 20C9.1, 20 6, 16.9 6, 13z"
         fill="#FFFFFF"
         class="White"
         id="path26070" />
    </g>
  </g>
  <g
     id="g25929"
     transform="matrix(0.54618016,0,0,0.54618016,18.522235,-3.5530217)">
    <g
       id="Delete_1_">
      <path
         d="m 10.8,8 4.9,-4.9 c 0.4,-0.4 0.4,-1 0,-1.4 L 14.3,0.3 c -0.4,-0.4 -1,-0.4 -1.4,0 L 8,5.2 3.1,0.3 c -0.4,-0.4 -1,-0.4 -1.4,0 L 0.3,1.7 c -0.4,0.4 -0.4,1 0,1.4 L 5.2,8 0.3,12.9 c -0.4,0.4 -0.4,1 0,1.4 l 1.4,1.4 c 0.4,0.4 1,0.4 1.4,0 l 4.9,-4.9 4.9,4.9 c 0.4,0.4 1,0.4 1.4,0 l 1.4,-1.4 c 0.4,-0.4 0.4,-1 0,-1.4 z"
         fill="#ffffff"
         class="White"
         id="path25926" />
    </g>
  </g>
</svg>
